# xmcd CD database file
#
# Track frame offsets:
#	150
#	10262
#	24335
#	42205
#	54474
#	66043
#	76951
#	87671
#	100233
#	112281
#
# Disc length: 1696 seconds
#
# Revision: 0
# Processed by: cddbd v1.5.2PL0 Copyright (c) Steve Scherf et al.
# Submitted via: CDex 1.70beta2
#
DISCID=7c069e0a
DTITLE=Various Artist - Country Drinking Songs
DYEAR=2005
DGENRE=Country
TTITLE0=Webb Pierce  There Stands The Glass
TTITLE1=Cal Smith  The Lord Knows I'm Drinkin'
TTITLE2=Merle Haggard  I Think I'll Just Stay Here And Drink
TTITLE3=Johnny Russell  Rednecks, White Socks And Blue Ribbon Beer
TTITLE4=Jerry Lee Lewis  Drinkin' Wine
TTITLE5=Faron Young  Wine Me Up
TTITLE6=Johnny Bush  Whiskey River
TTITLE7=Ernest Tubb and Boxcar Willie  Drivin' Nails In My Coffin
TTITLE8=David Willis  There's A Song On The Jukebox
TTITLE9=Billy Walker  Til I Drink Milwaukee Dry
EXTD=YEAR: 2005
EXTT0=
EXTT1=
EXTT2=
EXTT3=
EXTT4=
EXTT5=
EXTT6=
EXTT7=
EXTT8=
EXTT9=
PLAYORDER=
